<?xml version="1.0" encoding="iso-8859-1"?>
<!-- Generator: Adobe Illustrator 19.0.0, SVG Export Plug-In . SVG Version: 6.00 Build 0)  -->
<svg version="1.1" id="Layer_1" xmlns="http://www.w3.org/2000/svg" xmlns:xlink="http://www.w3.org/1999/xlink" x="0px" y="0px"
	 viewBox="0 0 512 512" style="enable-background:new 0 0 512 512;" xml:space="preserve">
<g style="fill:white">
	<g>
		<path d="M256.868,149.143c-21.757-28.959-54.979-45.567-91.149-45.567c-36.175,0-69.398,16.609-91.149,45.567
			c-2.766,3.682-2.766,8.759,0,12.441c21.752,28.959,54.974,45.567,91.149,45.567c36.17,0,69.392-16.609,91.149-45.567
			C259.639,157.902,259.639,152.824,256.868,149.143z M117.161,172.783c-7.694-4.711-14.777-10.507-20.936-17.42
			c6.16-6.913,13.243-12.709,20.936-17.42c-1.97,5.47-3.231,11.28-3.231,17.42C113.931,161.503,115.19,167.314,117.161,172.783z
			 M165.718,186.436c-17.134,0-31.073-13.938-31.073-31.073s13.938-31.073,31.073-31.073s31.073,13.938,31.073,31.073
			S182.853,186.436,165.718,186.436z M214.274,172.786c1.971-5.472,3.232-11.283,3.232-17.423c0-6.14-1.26-11.951-3.232-17.42
			c7.696,4.711,14.78,10.504,20.942,17.42C229.055,162.279,221.97,168.072,214.274,172.786z"/>
	</g>
</g>
<g style="fill:white">
	<g>
		<path d="M489.533,441.298l-95.21-95.21c-13.611-13.62-34.354-15.602-50.228-6.279l-71.748-71.749
			c29.934-28.334,48.734-68.318,48.734-112.696C321.081,69.691,251.386,0,165.718,0S10.355,69.691,10.355,155.363
			s69.696,155.363,155.363,155.363c33.821,0,65.06-10.985,90.596-29.406l73.13,73.13c-3.708,6.289-5.836,13.412-5.839,20.92
			c0,11.076,4.304,21.484,12.128,29.313l95.21,95.21C439.015,507.964,449.62,512,460.23,512c10.61,0,21.226-4.036,29.307-12.107
			C505.681,483.729,505.681,457.451,489.533,441.298z M165.718,290.011c-74.247,0-134.648-60.405-134.648-134.648
			S91.471,20.715,165.718,20.715S300.366,81.12,300.366,155.363S239.966,290.011,165.718,290.011z M474.887,485.246
			c-8.082,8.072-21.226,8.072-29.297,0l-95.21-95.21c-3.909-3.914-6.059-9.113-6.059-14.656c0.005-5.543,2.154-10.742,6.059-14.646
			c8.081-8.072,21.226-8.072,29.297,0l95.21,95.21C482.958,464.025,482.958,477.165,474.887,485.246z"/>
	</g>
</g>
<g>
</g>
<g>
</g>
<g>
</g>
<g>
</g>
<g>
</g>
<g>
</g>
<g>
</g>
<g>
</g>
<g>
</g>
<g>
</g>
<g>
</g>
<g>
</g>
<g>
</g>
<g>
</g>
<g>
</g>
</svg>
